<svg version="1" xmlns="http://www.w3.org/2000/svg" width="933.333" height="933.333" viewBox="0 0 700.000000 700.000000"><path d="M327.8.5c-.1.1-4.1.5-8.8.9-8.7.7-10.5.9-22.5 2.7-11.6 1.8-12.3 1.9-19.2 3.5-18.4 4.2-24.9 5.9-37.3 10.1-25.7 8.5-53.6 21.6-75.5 35.4C94.9 96.8 42.5 164 17 242c-2.8 8.7-7.5 25.6-8.5 31.1-.3 1.3-1.1 5.8-2 9.9-2.9 14.7-3.6 20-5.2 37-1.5 16.4-.8 59.2 1.2 71.1.2 1.3.6 4.6.9 7.4.9 7.8 2.3 15.6 5.1 28.5 2.3 10.7 8.8 33.3 11.4 39.5.5 1.1 2.5 6.5 4.6 12 5 13.2 18.1 39.8 25 50.8 3 4.9 5.5 9 5.5 9.3 0 .3.4 1 1 1.7.5.7 4.6 6.4 9.1 12.6 18.8 26.7 41 50.1 67.9 71.6 9.2 7.4 37 26.5 38.6 26.5.4 0 1.5.6 2.3 1.4 2.9 2.5 30.4 16.1 43.1 21.3 26.9 11 57.7 19.4 83.5 22.8 2.2.2 5.6.7 7.5 1 18.6 2.6 69.8 2.7 83.8 0 1.6-.3 10.4-1.5 14.7-2 32.1-4.1 82.9-22 115.3-40.6 4.7-2.7 8.7-4.9 8.9-4.9.2 0 .9-.5 1.6-1 .7-.6 6.2-4.3 12.2-8.3 25.3-16.8 49.2-37.6 67.8-59.2 3.3-3.9 6.3-7.2 6.7-7.5 1.7-1.3 18.1-23.6 24.5-33.5 21.9-33.6 40.6-77.9 48.1-114 1.6-7.9 5.4-30.1 5.9-35 .4-3.3.9-7.1 1.1-8.5.9-4.6 1.1-52.4.4-60.5-1.2-12.8-2.1-20.2-2.5-22.7-.3-1.3-.8-4.3-1.1-6.8-.9-7.1-7.1-33.8-9.5-41.5-1.2-3.9-2.4-7.7-2.5-8.6-.6-3-9.7-26.4-14.1-36.4-21.3-47.7-54.5-91.3-96.3-126.3-6.8-5.7-30.7-23.2-35.1-25.7-1-.5-4.9-2.9-8.6-5.1-8.5-5.2-29.7-16.2-38.3-19.9-3.6-1.5-8.3-3.5-10.5-4.5-11.9-5.2-41.6-14.2-58-17.5-4.4-.9-8.9-1.9-10-2.1-1.1-.2-3.8-.6-6-.9-2.2-.3-5.1-.7-6.5-1-1.3-.2-5.2-.7-8.6-1.1-3.3-.3-7.4-.8-9-1-3.2-.5-54-1.4-54.6-.9zM222.6 192c.6.8 2.2 3.5 3.6 6s5.7 9.9 9.5 16.5 12.3 21.2 18.8 32.5 17.3 29.9 24 41.5c6.7 11.5 13.3 23 14.7 25.5 1.4 2.5 4.6 8 7.2 12.3 2.5 4.3 4.6 7.9 4.6 8.2 0 .2 3.2 5.6 7 12.1 3.9 6.4 7 11.8 7 11.9 0 .2 4.3 7.6 9.5 16.5s9.5 16.3 9.5 16.5c0 .1 2.4 4.2 5.3 9.1 2.9 4.9 5.7 9.8 6.1 10.9l.7 2 1.1-2c.6-1.1 14.1-24.4 30-51.9 15.8-27.4 28.8-50.2 28.8-50.7s.5-.9 1-.9c.6 0 1-.4 1-1 0-.5 3.8-7.3 8.4-15.2 4.5-7.9 19.5-33.7 33.1-57.3 13.6-23.7 24.9-43.2 25.1-43.4.5-.5 129.6-.3 130.1.3.2.2-8 15-18.3 32.7-10.3 17.8-22 38.2-26.2 45.4-11.2 19.6-36.8 63.7-43.1 74.5-3.1 5.2-6.5 11.1-7.6 13.1-1.6 2.8-12.9 22.4-20 34.7-.6.9-2.8 4.8-5 8.7-2.1 3.8-6.3 11-9.2 15.8-2.9 4.8-5.3 8.9-5.3 9.2 0 .2-2.7 4.9-6 10.5s-6 10.3-6 10.5c0 .2-1.7 3.2-3.8 6.6-2.2 3.5-10.1 17.2-17.7 30.4s-17 29.4-20.8 36c-3.8 6.6-7.8 13.5-8.8 15.3-1.1 1.8-5.4 9.3-9.6 16.5-4.2 7.3-8.3 14.5-9.2 16-.9 1.6-2 3.6-2.6 4.5-.8 1.4-6 10.4-13.5 23.3-.8 1.5-4.4 7.7-8 13.8-3.6 6.2-8 13.8-9.8 16.9-1.8 3.1-4 7.2-4.9 9-.9 1.7-2 3.2-2.3 3.2-.4 0-2.2-2.6-3.9-5.8-1.8-3.1-4.1-7.3-5.3-9.2-1.1-1.9-11.2-19.5-22.5-39s-24.7-42.7-29.8-51.5c-13.6-23.3-68.4-118.2-71.3-123.5-1.4-2.4-4.9-8.4-7.8-13.3-3-4.9-5.4-9.1-5.4-9.3 0-.2-29.7-51.9-31.9-55.4-.6-.8-4.1-6.9-7.9-13.5-3.7-6.6-20.3-35.2-36.7-63.5-16.4-28.3-30.9-53.5-32.3-56-1.3-2.5-2.8-4.9-3.3-5.5-.5-.5-.9-1.1-.9-1.5 0-.3 29.1-.5 64.7-.5 56.4 0 64.9.2 65.9 1.5z"/></svg>