<?xml version="1.0" encoding="UTF-8"?>
<svg width="1858px" height="400px" viewBox="0 0 1858 400" version="1.1" xmlns="http://www.w3.org/2000/svg" xmlns:xlink="http://www.w3.org/1999/xlink">
    <g id="vouch" stroke="none" stroke-width="1" fill="none" fill-rule="evenodd">
        <path d="M576.5,393 C550.166535,393 526.166775,387.833385 504.5,377.5 C482.833225,367.166615 464.33341,353.583418 449,336.75 C433.66659,319.916583 421.750043,300.666775 413.25,279 C404.749957,257.333225 400.5,235.000115 400.5,212 C400.5,188.66655 404.916623,166.166775 413.75,144.5 C422.583377,122.833225 434.916587,103.750083 450.75,87.25 C466.583413,70.7499175 485.333225,57.5833825 507,47.75 C528.666775,37.9166175 552.333205,33 578,33 C604.333465,33 628.333225,38.166615 650,48.5 C671.666775,58.833385 690.16659,72.499915 705.5,89.5 C720.83341,106.500085 732.666625,125.833225 741,147.5 C749.333375,169.166775 753.5,191.166555 753.5,213.5 C753.5,236.83345 749.083377,259.333225 740.25,281 C731.416623,302.666775 719.166745,321.749918 703.5,338.25 C687.833255,354.750083 669.166775,367.99995 647.5,378 C625.833225,388.00005 602.166795,393 576.5,393 Z M484,213 C484,226.666735 485.99998,239.916603 490,252.75 C494.00002,265.583398 499.916628,276.99995 507.75,287 C515.583372,297.00005 525.333275,304.99997 537,311 C548.666725,317.00003 561.999925,320 577,320 C592.666745,320 606.333275,316.833365 618,310.5 C629.666725,304.166635 639.333295,295.916718 647,285.75 C654.666705,275.583283 660.416647,264.083398 664.25,251.25 C668.083353,238.416603 670,225.3334 670,212 C670,198.333265 668.00002,185.083398 664,172.25 C659.99998,159.416603 654.00004,148.083383 646,138.25 C637.99996,128.416618 628.250058,120.583363 616.75,114.75 C605.249942,108.916638 592.000075,106 577,106 C561.333255,106 547.750058,109.083303 536.25,115.25 C524.749942,121.416698 515.083372,129.49995 507.25,139.5 C499.416628,149.50005 493.583352,160.916603 489.75,173.75 C485.916648,186.583398 484,199.6666 484,213 Z M953.5,320 C967.50007,320 979.333285,317.083363 989,311.25 C998.666715,305.416638 1006.49997,297.666715 1012.5,288 C1018.50003,278.333285 1022.74999,267.250063 1025.25,254.75 C1027.75001,242.249938 1029,229.500065 1029,216.5 L1029,35 L1111,35 L1111,216.5 C1111,241.16679 1107.9167,264.16656 1101.75,285.5 C1095.5833,306.83344 1086.0834,325.49992 1073.25,341.5 C1060.4166,357.50008 1044.08343,370.083288 1024.25,379.25 C1004.41657,388.416713 980.83347,393 953.5,393 C925.166525,393 901.0001,388.166715 881,378.5 C860.9999,368.833285 844.750063,355.916748 832.25,339.75 C819.749937,323.583253 810.583363,304.83344 804.75,283.5 C798.916637,262.16656 796,239.83345 796,216.5 L796,35 L878,35 L878,216.5 C878,230.166735 879.33332,243.166605 882,255.5 C884.66668,267.833395 888.99997,278.833285 895,288.5 C901.00003,298.166715 908.749953,305.833305 918.25,311.5 C927.750047,317.166695 939.49993,320 953.5,320 Z M1154,209.5 C1154,188.16656 1157.99996,166.916773 1166,145.75 C1174.00004,124.583228 1185.66659,105.66675 1201,89 C1216.33341,72.33325 1234.99989,58.833385 1257,48.5 C1279.00011,38.166615 1303.99986,33 1332,33 C1365.3335,33 1394.24988,40.166595 1418.75,54.5 C1443.25012,68.833405 1461.49994,87.499885 1473.5,110.5 L1410.5,154.5 C1406.49998,145.16662 1401.4167,137.416698 1395.25,131.25 C1389.0833,125.083303 1382.33337,120.083352 1375,116.25 C1367.66663,112.416648 1360.16671,109.750008 1352.5,108.25 C1344.83329,106.749993 1337.33337,106 1330,106 C1314.33326,106 1300.66673,109.166635 1289,115.5 C1277.33327,121.833365 1267.66671,129.99995 1260,140 C1252.33329,150.00005 1246.66668,161.33327 1243,174 C1239.33332,186.66673 1237.5,199.499935 1237.5,212.5 C1237.5,226.50007 1239.66665,239.999935 1244,253 C1248.33335,266.000065 1254.58329,277.49995 1262.75,287.5 C1270.91671,297.50005 1280.74994,305.416638 1292.25,311.25 C1303.75006,317.083363 1316.66659,320 1331,320 C1338.33337,320 1345.91663,319.083343 1353.75,317.25 C1361.58337,315.416658 1369.0833,312.583353 1376.25,308.75 C1383.4167,304.916648 1389.99997,299.916698 1396,293.75 C1402.00003,287.583303 1406.83332,280.000045 1410.5,271 L1477.5,310.5 C1472.16664,323.500065 1464.25005,335.166615 1453.75,345.5 C1443.24995,355.833385 1431.16674,364.499965 1417.5,371.5 C1403.83326,378.500035 1389.33341,383.833315 1374,387.5 C1358.66659,391.166685 1343.66674,393 1329,393 C1303.3332,393 1279.75011,387.750053 1258.25,377.25 C1236.74989,366.749948 1218.25008,352.83342 1202.75,335.5 C1187.24992,318.16658 1175.25004,298.50011 1166.75,276.5 C1158.24996,254.49989 1154,232.16678 1154,209.5 Z M1824,35 L1824,390 L1742,390 L1742,244.5 L1600.5,244.5 L1600.5,390 L1518.5,390 L1518.5,35 L1600.5,35 L1600.5,172.5 L1742,172.5 L1742,35 L1824,35 Z" id="OUCH" fill="#000000" fill-rule="nonzero"></path>
        <path d="M1210.08532,328.815246 C1209.01579,329.253562 1207.78488,328.891703 1207.12382,327.944633 L1205.30316,325.336263 L1202.20643,324.747639 C1201.08113,324.533743 1200.25118,323.57473 1200.20239,322.431941 L1200.06551,319.22624 L1197.76221,317.026692 C1196.94067,316.242159 1196.76213,314.998743 1197.32981,314.015318 L1198.93001,311.243188 L1198.16693,308.125527 C1197.89627,307.01973 1198.41941,305.872732 1199.4325,305.350728 L1202.24749,303.90027 L1203.27022,300.870289 C1203.638,299.780693 1204.71156,299.089914 1205.85722,299.205698 L1208.98718,299.522023 L1211.45462,297.543 C1212.3573,296.819 1213.6427,296.819 1214.54538,297.543 L1217.01282,299.522023 L1220.14278,299.205698 C1221.28844,299.089914 1222.362,299.780693 1222.72978,300.870289 L1223.75251,303.90027 L1226.5675,305.350728 C1227.58059,305.872732 1228.10373,307.01973 1227.83307,308.125527 L1227.06999,311.243188 L1228.67019,314.015318 C1229.23787,314.998743 1229.05933,316.242159 1228.23779,317.026692 L1225.93449,319.22624 L1225.79761,322.431941 C1225.74882,323.57473 1224.91887,324.533743 1223.79357,324.747639 L1220.69684,325.336263 L1218.87618,327.944633 C1218.21512,328.891703 1216.98421,329.253562 1215.91468,328.815246 L1213,327.620744 L1210.08532,328.815246 Z M1217.94317,307 L1212.98233,315.926531 L1208.02149,307 L1203,307 L1213,325 L1223,307 L1217.94317,307 Z" id="Brand" fill="#000000" fill-rule="nonzero"></path>
        <path d="M326.483193,388 L228.5,212 L130.516807,388 L31,388 L228.5,33 L426,388 L326.483193,388 Z" id="Combined-Shape" fill="#000000" fill-rule="nonzero" transform="translate(228.500000, 210.500000) scale(1, -1) translate(-228.500000, -210.500000) "></path>
    </g>
</svg>